<svg xmlns="http://www.w3.org/2000/svg" xmlns:xlink="http://www.w3.org/1999/xlink" width="500" zoomAndPan="magnify" viewBox="0 0 375 374.999991" height="500" preserveAspectRatio="xMidYMid meet" version="1.0"><defs><g/><clipPath id="e2b6de196b"><path d="M 122.671875 107.503906 L 252.421875 107.503906 L 252.421875 207.253906 L 122.671875 207.253906 Z M 122.671875 107.503906 " clip-rule="nonzero"/></clipPath></defs><rect x="-37.5" width="450" fill="#ffffff" y="-37.499999" height="449.999989" fill-opacity="1"/><rect x="-37.5" width="450" fill="#1e0b00" y="-37.499999" height="449.999989" fill-opacity="1"/><g fill="#ffffff" fill-opacity="1"><g transform="translate(119.149263, 241.425629)"><g><path d="M 7 -9.359375 L 7 0 L 1.84375 0 L 1.84375 -23.859375 L 12.609375 -23.859375 L 12.609375 -19.390625 L 7 -19.390625 L 7 -13.6875 L 12.25 -13.6875 L 12.25 -9.359375 Z M 7 -9.359375 "/></g></g></g><g fill="#ffffff" fill-opacity="1"><g transform="translate(138.101081, 241.425629)"><g><path d="M 7 -23.859375 L 7 0 L 1.84375 0 L 1.84375 -23.859375 Z M 7 -23.859375 "/></g></g></g><g fill="#ffffff" fill-opacity="1"><g transform="translate(152.259766, 241.425629)"><g><path d="M 15.53125 0 L 10.359375 0 L 10.359375 -19.796875 C 10.359375 -19.992188 10.289062 -20.164062 10.15625 -20.3125 C 10.019531 -20.46875 9.851562 -20.546875 9.65625 -20.546875 L 7.671875 -20.546875 C 7.472656 -20.546875 7.304688 -20.46875 7.171875 -20.3125 C 7.035156 -20.164062 6.96875 -19.992188 6.96875 -19.796875 L 6.96875 0 L 1.8125 0 L 1.8125 -19.359375 C 1.8125 -22.609375 3.332031 -24.234375 6.375 -24.234375 L 10.953125 -24.234375 C 14.003906 -24.234375 15.53125 -22.609375 15.53125 -19.359375 Z M 15.53125 0 "/></g></g></g><g fill="#ffffff" fill-opacity="1"><g transform="translate(174.566771, 241.425629)"><g><path d="M 11.328125 -24.234375 C 14.367188 -24.234375 15.890625 -22.609375 15.890625 -19.359375 L 15.890625 0 L 10.734375 0 L 10.734375 -8 L 7 -8 L 7 0 L 1.84375 0 L 1.84375 -19.359375 C 1.84375 -22.609375 3.367188 -24.234375 6.421875 -24.234375 Z M 7 -11.984375 L 10.734375 -11.984375 L 10.734375 -19.984375 C 10.734375 -20.179688 10.664062 -20.351562 10.53125 -20.5 C 10.394531 -20.644531 10.226562 -20.71875 10.03125 -20.71875 L 7.703125 -20.71875 C 7.503906 -20.71875 7.335938 -20.644531 7.203125 -20.5 C 7.066406 -20.351562 7 -20.179688 7 -19.984375 Z M 7 -11.984375 "/></g></g></g><g fill="#ffffff" fill-opacity="1"><g transform="translate(197.611185, 241.425629)"><g><path d="M 15.53125 0 L 10.359375 0 L 10.359375 -19.796875 C 10.359375 -19.992188 10.289062 -20.164062 10.15625 -20.3125 C 10.019531 -20.46875 9.851562 -20.546875 9.65625 -20.546875 L 7.671875 -20.546875 C 7.472656 -20.546875 7.304688 -20.46875 7.171875 -20.3125 C 7.035156 -20.164062 6.96875 -19.992188 6.96875 -19.796875 L 6.96875 0 L 1.8125 0 L 1.8125 -19.359375 C 1.8125 -22.609375 3.332031 -24.234375 6.375 -24.234375 L 10.953125 -24.234375 C 14.003906 -24.234375 15.53125 -22.609375 15.53125 -19.359375 Z M 15.53125 0 "/></g></g></g><g fill="#ffffff" fill-opacity="1"><g transform="translate(219.918195, 241.425629)"><g><path d="M 10.734375 -3.90625 L 10.734375 -7.59375 L 15.640625 -7.59375 L 15.640625 -4.5 C 15.640625 -1.25 14.113281 0.375 11.0625 0.375 L 6.421875 0.375 C 3.367188 0.375 1.84375 -1.25 1.84375 -4.5 L 1.84375 -19.359375 C 1.84375 -22.609375 3.367188 -24.234375 6.421875 -24.234375 L 11.0625 -24.234375 C 14.113281 -24.234375 15.640625 -22.609375 15.640625 -19.359375 L 15.640625 -17.109375 L 10.734375 -17.109375 L 10.734375 -19.984375 C 10.734375 -20.179688 10.664062 -20.351562 10.53125 -20.5 C 10.394531 -20.644531 10.226562 -20.71875 10.03125 -20.71875 L 7.703125 -20.71875 C 7.503906 -20.71875 7.335938 -20.644531 7.203125 -20.5 C 7.066406 -20.351562 7 -20.179688 7 -19.984375 L 7 -3.90625 C 7 -3.707031 7.066406 -3.535156 7.203125 -3.390625 C 7.335938 -3.242188 7.503906 -3.171875 7.703125 -3.171875 L 10.03125 -3.171875 C 10.226562 -3.171875 10.394531 -3.242188 10.53125 -3.390625 C 10.664062 -3.535156 10.734375 -3.707031 10.734375 -3.90625 Z M 10.734375 -3.90625 "/></g></g></g><g fill="#ffffff" fill-opacity="1"><g transform="translate(241.967103, 241.425629)"><g><path d="M 7 -4.28125 L 12.71875 -4.28125 L 12.71875 0 L 1.84375 0 L 1.84375 -23.859375 L 12.71875 -23.859375 L 12.71875 -19.65625 L 7 -19.65625 L 7 -14.046875 L 12.359375 -14.046875 L 12.359375 -10 L 7 -10 Z M 7 -4.28125 "/></g></g></g><g fill="#7ed957" fill-opacity="1"><g transform="translate(163.276839, 260.909484)"><g><path d="M 6.125 -3.796875 L 11.0625 -3.796875 L 11.0625 0 L 1.609375 0 L 1.609375 -20.859375 L 6.125 -20.859375 Z M 6.125 -3.796875 "/></g></g></g><g fill="#7ed957" fill-opacity="1"><g transform="translate(176.457917, 260.909484)"><g><path d="M 6.125 -20.859375 L 6.125 0 L 1.609375 0 L 1.609375 -20.859375 Z M 6.125 -20.859375 "/></g></g></g><g fill="#7ed957" fill-opacity="1"><g transform="translate(185.93294, 260.909484)"><g><path d="M 6.125 -8.1875 L 6.125 0 L 1.609375 0 L 1.609375 -20.859375 L 11.03125 -20.859375 L 11.03125 -16.953125 L 6.125 -16.953125 L 6.125 -11.953125 L 10.703125 -11.953125 L 10.703125 -8.1875 Z M 6.125 -8.1875 "/></g></g></g><g fill="#7ed957" fill-opacity="1"><g transform="translate(199.597417, 260.909484)"><g><path d="M 6.125 -3.734375 L 11.125 -3.734375 L 11.125 0 L 1.609375 0 L 1.609375 -20.859375 L 11.125 -20.859375 L 11.125 -17.1875 L 6.125 -17.1875 L 6.125 -12.28125 L 10.796875 -12.28125 L 10.796875 -8.734375 L 6.125 -8.734375 Z M 6.125 -3.734375 "/></g></g></g><g clip-path="url(#e2b6de196b)"><path fill="#7ed957" d="M 243.386719 148.132812 L 243.386719 137.257812 C 243.386719 132.730469 239.683594 129.023438 235.15625 129.023438 L 161.359375 129.023438 L 214.183594 123.261719 L 214.183594 113.675781 C 214.183594 111.789062 213.367188 110.164062 211.851562 109.039062 C 210.335938 107.914062 208.546875 107.597656 206.738281 108.144531 L 141.464844 127.785156 C 138.984375 128.53125 137.351562 130.726562 137.351562 133.320312 L 137.351562 151.949219 L 159.527344 151.949219 C 163.332031 151.949219 166.4375 155.058594 166.4375 158.859375 C 166.4375 162.660156 163.328125 165.769531 159.527344 165.769531 L 129.582031 165.769531 C 125.78125 165.769531 122.671875 168.878906 122.671875 172.679688 C 122.671875 176.476562 125.78125 179.585938 129.582031 179.585938 L 179.050781 179.585938 C 182.851562 179.585938 185.957031 182.695312 185.957031 186.496094 C 185.957031 190.292969 182.847656 193.402344 179.050781 193.402344 L 158.925781 193.402344 C 155.125 193.402344 152.019531 196.511719 152.019531 200.3125 C 152.019531 204.113281 155.128906 207.222656 158.925781 207.222656 L 235.152344 207.222656 C 239.679688 207.222656 243.386719 203.515625 243.386719 198.988281 L 243.386719 188.113281 L 228.117188 188.113281 C 226.769531 188.113281 225.667969 187.011719 225.667969 185.664062 C 225.667969 184.316406 226.769531 183.214844 228.117188 183.214844 L 247.652344 183.214844 C 250.222656 183.214844 252.320312 181.117188 252.320312 178.542969 L 252.320312 157.703125 C 252.320312 155.128906 250.226562 153.03125 247.652344 153.03125 L 219.652344 153.03125 C 218.304688 153.03125 217.199219 151.929688 217.199219 150.582031 C 217.199219 149.234375 218.300781 148.132812 219.652344 148.132812 Z M 218.90625 163.839844 C 216.539062 163.839844 214.617188 165.757812 214.617188 168.125 C 214.617188 170.492188 216.539062 172.414062 218.90625 172.414062 C 221.273438 172.414062 223.191406 170.492188 223.191406 168.125 C 223.191406 165.757812 221.273438 163.839844 218.90625 163.839844 Z M 208.714844 168.125 C 208.714844 162.519531 213.300781 157.933594 218.90625 157.933594 L 247.425781 157.933594 L 247.425781 178.316406 L 218.90625 178.316406 C 213.300781 178.316406 208.714844 173.730469 208.714844 168.125 Z M 208.714844 168.125 " fill-opacity="1" fill-rule="evenodd"/></g></svg>